<svg xmlns="http://www.w3.org/2000/svg" version="1.1" width="1088" height="687.962" viewBox="-100 0 788 587.962" style="shape-rendering:geometricPrecision; text-rendering:geometricPrecision; image-rendering:optimizeQuality; fill-rule:evenodd; clip-rule:evenodd" xmlns:xlink="http://www.w3.org/1999/xlink">
<g><path style="opacity:0.924" fill="#000000" d="M 358.5,157.5 C 420.844,154.001 475.344,172.668 522,213.5C 521.557,204.845 521.223,196.178 521,187.5C 525.667,180.833 530.333,180.833 535,187.5C 536.818,203.802 537.818,220.135 538,236.5C 537.5,238.333 536.333,239.5 534.5,240C 518.487,239.563 502.487,238.563 486.5,237C 481.084,233.797 480.084,229.464 483.5,224C 485.702,222.978 488.035,222.478 490.5,222.5C 497.524,223.28 504.524,223.78 511.5,224C 447.684,171.196 376.684,158.863 298.5,187C 286.565,191.966 275.232,197.966 264.5,205C 270.667,211.167 276.833,217.333 283,223.5C 284.625,227.332 285.625,231.332 286,235.5C 307.381,221.317 330.881,212.983 356.5,210.5C 357.801,199.199 364.134,192.866 375.5,191.5C 386.894,192.894 393.227,199.227 394.5,210.5C 457.713,219.224 502.546,252.558 529,310.5C 535.031,325.292 538.865,340.626 540.5,356.5C 551.773,357.773 558.106,364.106 559.5,375.5C 558.106,386.894 551.773,393.227 540.5,394.5C 531.821,456.72 499.155,501.22 442.5,528C 427.149,534.671 411.149,538.838 394.5,540.5C 393.227,551.773 386.894,558.106 375.5,559.5C 364.134,558.134 357.801,551.801 356.5,540.5C 293.287,531.776 248.454,498.442 222,440.5C 215.969,425.708 212.135,410.374 210.5,394.5C 199.227,393.227 192.894,386.894 191.5,375.5C 192.894,364.106 199.227,357.773 210.5,356.5C 212.983,330.881 221.317,307.381 235.5,286C 231.332,285.625 227.332,284.625 223.5,283C 217.333,276.833 211.167,270.667 205,264.5C 171.698,317.944 163.698,374.944 181,435.5C 186.591,453.679 194.591,470.679 205,486.5C 206.955,494.791 203.788,498.291 195.5,497C 193.448,496.07 191.948,494.57 191,492.5C 151.955,426.371 146.955,357.704 176,286.5C 181.028,274.935 187.195,264.102 194.5,254C 183.933,244.103 174.1,233.603 165,222.5C 163.814,216.696 165.98,212.863 171.5,211C 183.815,209.835 196.148,209.001 208.5,208.5C 209.001,196.148 209.835,183.815 211,171.5C 214.396,164.371 219.563,162.871 226.5,167C 235.667,176.167 244.833,185.333 254,194.5C 285.665,173.112 320.499,160.779 358.5,157.5 Z M 224.5,186.5 C 239.799,201.298 254.965,216.298 270,231.5C 271.224,243.525 272.557,255.525 274,267.5C 306.333,299.833 338.667,332.167 371,364.5C 371.899,370.932 369.399,372.765 363.5,370C 331.5,338 299.5,306 267.5,274C 255.525,272.557 243.525,271.224 231.5,270C 216.5,255 201.5,240 186.5,225C 196.811,223.824 207.144,222.824 217.5,222C 218.931,221.535 220.097,220.701 221,219.5C 222.921,208.619 224.088,197.619 224.5,186.5 Z M 373.5,206.5 C 375.722,206.178 377.556,206.845 379,208.5C 379.667,230.5 379.667,252.5 379,274.5C 376.667,277.167 374.333,277.167 372,274.5C 371.333,252.5 371.333,230.5 372,208.5C 372.717,207.956 373.217,207.289 373.5,206.5 Z M 349.5,225.5 C 351.833,225.5 354.167,225.5 356.5,225.5C 356.5,237.5 356.5,249.5 356.5,261.5C 339.096,264.301 323.096,270.634 308.5,280.5C 301.514,274.015 294.681,267.348 288,260.5C 287.774,257.905 287.274,255.405 286.5,253C 305.466,239.071 326.466,229.904 349.5,225.5 Z M 394.5,225.5 C 438.225,231.436 473.058,252.103 499,287.5C 513.634,308.231 522.468,331.231 525.5,356.5C 513.5,356.5 501.5,356.5 489.5,356.5C 481.398,313.48 457.065,283.646 416.5,267C 409.33,264.442 401.997,262.609 394.5,261.5C 394.5,249.5 394.5,237.5 394.5,225.5 Z M 352.5,276.5 C 353.873,276.343 355.207,276.51 356.5,277C 362.103,290.54 371.769,294.54 385.5,289C 389.662,286.188 392.495,282.355 394,277.5C 394.725,276.941 395.558,276.608 396.5,276.5C 437.721,287.555 463.721,313.721 474.5,355C 474.355,355.772 474.022,356.439 473.5,357C 461.165,361.84 456.999,370.673 461,383.5C 463.724,389.034 468.058,392.701 474,394.5C 464.681,435.824 439.514,462.324 398.5,474C 397.167,474.667 395.833,474.667 394.5,474C 387.588,459.031 376.921,455.697 362.5,464C 359.836,466.669 358.002,469.836 357,473.5C 356.275,474.059 355.442,474.392 354.5,474.5C 313.5,463.5 287.5,437.5 276.5,396.5C 276.608,395.558 276.941,394.725 277.5,394C 288.56,390.058 293.06,382.224 291,370.5C 289.167,363.333 284.667,358.833 277.5,357C 276.941,356.275 276.608,355.442 276.5,354.5C 279.259,341.707 284.426,330.04 292,319.5C 299.681,327.014 307.181,334.681 314.5,342.5C 312.08,346.838 310.08,351.338 308.5,356C 305.167,356.333 301.833,356.667 298.5,357C 297.667,357.833 296.833,358.667 296,359.5C 295.333,370.167 295.333,380.833 296,391.5C 296.833,392.333 297.667,393.167 298.5,394C 301.833,394.333 305.167,394.667 308.5,395C 310.08,399.662 312.08,404.162 314.5,408.5C 312.144,411.022 309.977,413.688 308,416.5C 307.365,418.635 307.699,420.635 309,422.5C 315.5,429 322,435.5 328.5,442C 329.872,442.402 331.205,442.902 332.5,443.5C 336.365,441.975 339.698,439.642 342.5,436.5C 346.533,439.019 350.866,440.686 355.5,441.5C 354.702,446.715 356.036,451.215 359.5,455C 370.167,455.667 380.833,455.667 391.5,455C 394.964,451.215 396.298,446.715 395.5,441.5C 400.134,440.686 404.467,439.019 408.5,436.5C 411.302,439.642 414.635,441.975 418.5,443.5C 419.795,442.902 421.128,442.402 422.5,442C 429,435.5 435.5,429 442,422.5C 443.301,420.635 443.635,418.635 443,416.5C 441.023,413.688 438.856,411.022 436.5,408.5C 438.92,404.162 440.92,399.662 442.5,395C 445.833,394.667 449.167,394.333 452.5,394C 453.333,393.167 454.167,392.333 455,391.5C 455.667,380.833 455.667,370.167 455,359.5C 454.167,358.667 453.333,357.833 452.5,357C 449.167,356.667 445.833,356.333 442.5,356C 440.92,351.338 438.92,346.838 436.5,342.5C 438.856,339.978 441.023,337.312 443,334.5C 443.635,332.365 443.301,330.365 442,328.5C 435.136,321.302 427.97,314.468 420.5,308C 418.447,307.675 416.447,308.009 414.5,309C 412.65,311.018 410.65,312.851 408.5,314.5C 404.467,311.981 400.134,310.314 395.5,309.5C 396.298,304.285 394.964,299.785 391.5,296C 380.833,295.333 370.167,295.333 359.5,296C 356.036,299.785 354.702,304.285 355.5,309.5C 350.866,310.314 346.533,311.981 342.5,314.5C 334.681,307.181 327.014,299.681 319.5,292C 329.615,284.803 340.615,279.636 352.5,276.5 Z M 252.5,286.5 C 255.127,287.105 257.793,287.605 260.5,288C 267.348,294.681 274.015,301.514 280.5,308.5C 270.634,323.096 264.301,339.096 261.5,356.5C 249.5,356.5 237.5,356.5 225.5,356.5C 228.389,330.737 237.389,307.403 252.5,286.5 Z M 370.5,309.5 C 373.833,309.5 377.167,309.5 380.5,309.5C 379.846,313.839 380.846,317.673 383.5,321C 392.859,323.266 401.692,326.766 410,331.5C 413.489,330.259 416.656,328.759 419.5,327C 421.351,328.684 423.018,330.517 424.5,332.5C 420.938,335.358 419.438,339.025 420,343.5C 424.889,350.828 428.222,358.828 430,367.5C 433.327,370.154 437.161,371.154 441.5,370.5C 441.5,373.833 441.5,377.167 441.5,380.5C 437.161,379.846 433.327,380.846 430,383.5C 427.868,392.758 424.368,401.424 419.5,409.5C 420.515,413.257 422.015,416.59 424,419.5C 422.316,421.351 420.483,423.018 418.5,424.5C 416.287,421.789 413.454,420.122 410,419.5C 401.692,424.234 392.859,427.734 383.5,430C 380.846,433.327 379.846,437.161 380.5,441.5C 377.167,441.5 373.833,441.5 370.5,441.5C 371.154,437.161 370.154,433.327 367.5,430C 358.141,427.734 349.308,424.234 341,419.5C 337.511,420.741 334.344,422.241 331.5,424C 329.649,422.316 327.982,420.483 326.5,418.5C 330.062,415.642 331.562,411.975 331,407.5C 326.111,400.172 322.778,392.172 321,383.5C 317.673,380.846 313.839,379.846 309.5,380.5C 309.5,377.167 309.5,373.833 309.5,370.5C 313.839,371.154 317.673,370.154 321,367.5C 322.083,362.583 323.749,357.916 326,353.5C 328.553,355.716 330.72,358.216 332.5,361C 326.246,391.513 337.913,411.18 367.5,420C 395.18,422.258 412.68,410.092 420,383.5C 422.258,355.82 410.092,338.32 383.5,331C 375.898,330.111 368.398,330.611 361,332.5C 358.216,330.72 355.716,328.553 353.5,326C 357.916,323.749 362.583,322.083 367.5,321C 370.154,317.673 371.154,313.839 370.5,309.5 Z M 373.5,344.5 C 392.567,346.233 403.567,356.566 406.5,375.5C 403.833,393.5 393.5,403.833 375.5,406.5C 357.5,403.833 347.167,393.5 344.5,375.5C 344.808,374.692 345.308,374.025 346,373.5C 349.534,377.369 353.367,380.869 357.5,384C 373.705,389.4 383.372,383.733 386.5,367C 386.238,364.453 385.738,361.953 385,359.5C 381.31,354.32 377.477,349.32 373.5,344.5 Z M 208.5,371.5 C 230.503,371.333 252.503,371.5 274.5,372C 277.167,374.333 277.167,376.667 274.5,379C 252.5,379.667 230.5,379.667 208.5,379C 205.914,376.506 205.914,374.006 208.5,371.5 Z M 476.5,371.5 C 498.503,371.333 520.503,371.5 542.5,372C 545.167,374.333 545.167,376.667 542.5,379C 520.5,379.667 498.5,379.667 476.5,379C 473.914,376.506 473.914,374.006 476.5,371.5 Z M 225.5,394.5 C 237.5,394.5 249.5,394.5 261.5,394.5C 269.602,437.52 293.935,467.354 334.5,484C 341.67,486.558 349.003,488.391 356.5,489.5C 356.5,501.5 356.5,513.5 356.5,525.5C 312.775,519.564 277.942,498.897 252,463.5C 237.366,442.769 228.532,419.769 225.5,394.5 Z M 489.5,394.5 C 501.5,394.5 513.5,394.5 525.5,394.5C 517.05,448.768 488.383,488.268 439.5,513C 425.226,519.818 410.226,523.985 394.5,525.5C 394.5,513.5 394.5,501.5 394.5,489.5C 437.52,481.398 467.354,457.065 484,416.5C 486.558,409.33 488.391,401.997 489.5,394.5 Z M 373.5,474.5 C 375.722,474.178 377.556,474.845 379,476.5C 379.667,498.5 379.667,520.5 379,542.5C 376.667,545.167 374.333,545.167 372,542.5C 371.333,520.5 371.333,498.5 372,476.5C 372.717,475.956 373.217,475.289 373.5,474.5 Z"/></g>
<g><path style="opacity:0.921" fill="#000000" d="M 549.5,253.5 C 552.32,253.248 554.986,253.748 557.5,255C 593.944,312.774 602.777,374.607 584,440.5C 557.187,517.647 504.354,566.814 425.5,588C 351.493,603.292 285.993,586.458 229,537.5C 229.443,546.155 229.777,554.822 230,563.5C 226.428,569.12 222.094,569.786 217,565.5C 214.293,548.637 212.959,531.637 213,514.5C 213.5,512.667 214.667,511.5 216.5,511C 232.513,511.437 248.513,512.437 264.5,514C 269.916,517.203 270.916,521.536 267.5,527C 265.298,528.022 262.965,528.522 260.5,528.5C 253.476,527.72 246.476,527.22 239.5,527C 300.394,577.874 368.728,591.207 444.5,567C 506.803,542.697 548.636,498.864 570,435.5C 587.31,375.003 579.31,318.003 546,264.5C 544.663,259.872 545.83,256.205 549.5,253.5 Z"/></g>
</svg>
