<svg xmlns="http://www.w3.org/2000/svg" version="1.1" width="1088" height="687.962" viewBox="-100 0 788 587.962" style="shape-rendering:geometricPrecision; text-rendering:geometricPrecision; image-rendering:optimizeQuality; fill-rule:evenodd; clip-rule:evenodd" xmlns:xlink="http://www.w3.org/1999/xlink">
<g><path style="opacity:0.98" fill="#000000" d="M 433.5,150.5 C 466.73,147.606 488.23,161.939 498,193.5C 502.065,221.202 491.899,241.702 467.5,255C 439.52,265.336 416.353,258.836 398,235.5C 382.558,205.709 387.725,180.209 413.5,159C 419.92,155.282 426.586,152.449 433.5,150.5 Z"/></g>
<g><path style="opacity:0.982" fill="#000000" d="M 377.5,188.5 C 378.497,188.47 379.164,188.97 379.5,190C 375.79,205.583 377.457,220.583 384.5,235C 384.095,235.945 383.428,236.612 382.5,237C 347.933,247.409 347.933,258.076 382.5,269C 387.469,270.159 392.469,271.159 397.5,272C 428.833,274 460.167,274 491.5,272C 504.005,270.295 515.672,266.295 526.5,260C 533.059,254.916 533.059,249.916 526.5,245C 519.043,241.27 511.377,238.103 503.5,235.5C 510.193,220.481 512.36,204.814 510,188.5C 533.349,192.006 553.016,202.34 569,219.5C 583.401,242.329 582.734,264.663 567,286.5C 546.931,306.146 522.764,316.812 494.5,318.5C 480.971,364.252 466.138,409.586 450,454.5C 443.417,470.418 432.584,482.585 417.5,491C 348.167,527 278.833,563 209.5,599C 192.504,603.915 180.337,598.415 173,582.5C 168.9,568.207 173.067,557.041 185.5,549C 199.656,542.089 213.656,534.922 227.5,527.5C 227.868,501.014 230.035,474.681 234,448.5C 236.163,435.676 240.496,423.676 247,412.5C 252.444,405.863 259.278,401.363 267.5,399C 296.345,398.203 325.179,398.37 354,399.5C 355.981,399.371 357.647,398.704 359,397.5C 367.041,370.71 375.874,344.21 385.5,318C 360.149,315.073 338.649,304.573 321,286.5C 308.005,267.716 306.005,247.716 315,226.5C 323.363,212.558 335.197,202.725 350.5,197C 359.472,193.681 368.472,190.848 377.5,188.5 Z M 289.5,453.5 C 315.512,453.374 341.512,453.874 367.5,455C 340.324,469.422 312.99,483.588 285.5,497.5C 285.429,482.787 286.763,468.12 289.5,453.5 Z"/></g>
</svg>
