<svg xmlns="http://www.w3.org/2000/svg" version="1.1" width="1088" height="687.962" viewBox="-100 0 788 587.962" style="shape-rendering:geometricPrecision; text-rendering:geometricPrecision; image-rendering:optimizeQuality; fill-rule:evenodd; clip-rule:evenodd" xmlns:xlink="http://www.w3.org/1999/xlink">
<g><path style="opacity:0.881" fill="#000000" d="M 451.5,237.5 C 465.935,235.98 478.769,239.647 490,248.5C 494.587,253.673 497.587,259.673 499,266.5C 500.276,275.788 500.776,285.121 500.5,294.5C 503.323,294.025 505.323,295.025 506.5,297.5C 503.373,300.163 500.539,303.163 498,306.5C 491.819,334.048 481.152,359.714 466,383.5C 439.435,424.413 409.435,462.747 376,498.5C 371.167,502.667 366.333,506.833 361.5,511C 357.373,513.528 353.04,514.028 348.5,512.5C 348.372,510.345 348.872,508.345 350,506.5C 370.432,484.907 389.932,462.573 408.5,439.5C 393.519,447.214 379.519,457.047 366.5,469C 369.287,468.377 372.12,467.544 375,466.5C 378.602,466.721 379.102,467.888 376.5,470C 368.096,476.203 358.763,480.203 348.5,482C 351.329,484.827 354.663,486.827 358.5,488C 359.833,489.333 359.833,490.667 358.5,492C 352.936,493.01 347.602,492.343 342.5,490C 311.29,468.457 285.124,441.957 264,410.5C 257.172,398.846 252.005,386.513 248.5,373.5C 246.693,372.605 245.36,371.272 244.5,369.5C 245.924,367.255 246.59,364.755 246.5,362C 243.44,338.302 247.94,316.135 260,295.5C 274.358,276.269 293.191,269.769 316.5,276C 327.617,279.651 336.784,286.151 344,295.5C 347.916,300.996 351.582,306.663 355,312.5C 369.073,284.087 390.573,262.254 419.5,247C 429.924,242.566 440.59,239.4 451.5,237.5 Z M 389.5,308.5 C 414.049,288.542 440.383,271.042 468.5,256C 469.833,254.667 469.833,253.333 468.5,252C 465.833,251.333 463.167,251.333 460.5,252C 438.393,263.556 415.726,273.723 392.5,282.5C 408.527,262.639 429.194,250.139 454.5,245C 464.503,243.753 472.337,247.253 478,255.5C 480.427,259.787 482.261,264.287 483.5,269C 451.8,281.352 420.467,294.518 389.5,308.5 Z M 376.5,341.5 C 411.023,317.974 446.857,296.307 484,276.5C 484.443,283.856 484.11,291.189 483,298.5C 466.962,304.849 450.795,311.015 434.5,317C 415.03,324.903 395.697,333.07 376.5,341.5 Z M 294.5,281.5 C 298.514,281.334 302.514,281.501 306.5,282C 308.779,282.473 310.779,283.473 312.5,285C 299.377,291.061 286.377,297.394 273.5,304C 272.5,304.667 271.5,304.667 270.5,304C 276.153,293.842 284.153,286.342 294.5,281.5 Z M 403.5,284.5 C 394.533,291.984 385.2,298.984 375.5,305.5C 378.17,299.657 381.837,294.49 386.5,290C 392.165,288.056 397.832,286.222 403.5,284.5 Z M 271.5,328.5 C 286.106,314.397 301.772,301.563 318.5,290C 322.114,291.578 325.281,294.078 328,297.5C 328.688,298.332 328.521,298.998 327.5,299.5C 308.497,308.667 289.83,318.334 271.5,328.5 Z M 307.5,291.5 C 292.619,301.873 278.119,312.873 264,324.5C 264.825,319.027 266.658,313.861 269.5,309C 282.069,302.881 294.735,297.048 307.5,291.5 Z M 263.5,361.5 C 284.226,340.269 306.892,321.436 331.5,305C 332.332,304.312 332.998,304.479 333.5,305.5C 336.694,310.554 339.361,315.888 341.5,321.5C 341.291,322.086 340.957,322.586 340.5,323C 314.533,335.317 288.866,348.15 263.5,361.5 Z M 406.5,310.5 C 392.316,319.851 377.816,328.851 363,337.5C 363.216,332.668 364.383,328.001 366.5,323.5C 370.122,322.675 373.789,322.175 377.5,322C 387.163,318.059 396.829,314.226 406.5,310.5 Z M 348.5,386.5 C 390.805,361.006 434.139,337.006 478.5,314.5C 473.187,338.32 463.52,360.486 449.5,381C 437.583,383.861 425.916,387.528 414.5,392C 394.171,401.007 373.838,409.673 353.5,418C 388.813,392.669 425.479,369.336 463.5,348C 469.201,343.216 468.201,340.716 460.5,340.5C 450.219,343.138 440.219,346.638 430.5,351C 403.018,362.576 375.685,374.41 348.5,386.5 Z M 298.5,320.5 C 286.232,330.258 274.065,340.258 262,350.5C 261.211,346.909 261.378,343.409 262.5,340C 274.394,333.221 286.394,326.721 298.5,320.5 Z M 436.5,325.5 C 402.571,344.133 368.904,363.3 335.5,383C 331.756,385.955 327.922,388.789 324,391.5C 322.863,395.37 324.363,397.203 328.5,397C 316.953,402.607 305.286,407.941 293.5,413C 290.845,414.115 288.179,414.782 285.5,415C 305.875,395.331 327.541,377.331 350.5,361C 355.5,359.333 360.5,357.667 365.5,356C 388.751,344.754 412.418,334.587 436.5,325.5 Z M 342.5,329.5 C 344.117,330.589 344.95,332.256 345,334.5C 345.29,338.863 345.79,343.196 346.5,347.5C 346.392,348.442 346.059,349.275 345.5,350C 326.022,359.408 306.689,368.741 287.5,378C 304.543,360.108 322.877,343.941 342.5,329.5 Z M 304.5,348.5 C 294.895,357.604 285.395,366.937 276,376.5C 274.304,378.56 273.137,380.893 272.5,383.5C 272.529,385.029 273.196,386.196 274.5,387C 278.167,387.667 281.833,387.667 285.5,387C 300.522,379.822 315.522,372.655 330.5,365.5C 320.351,373.47 310.018,381.303 299.5,389C 292.698,394.801 286.198,400.968 280,407.5C 272.079,395.911 266.579,383.244 263.5,369.5C 277.064,362.219 290.73,355.219 304.5,348.5 Z M 419.5,363.5 C 384.038,385.403 349.371,408.57 315.5,433C 313.112,435.05 311.112,437.384 309.5,440C 309.645,440.772 309.978,441.439 310.5,442C 314.5,444 318.5,444 322.5,442C 354.326,426.231 386.659,411.731 419.5,398.5C 386.233,417.135 353.566,436.802 321.5,457.5C 309.604,446.106 298.604,433.939 288.5,421C 320.296,408.103 351.629,394.103 382.5,379C 394.666,373.336 407,368.17 419.5,363.5 Z M 438.5,397.5 C 434.414,404.1 430.081,410.6 425.5,417C 401.58,426.628 377.913,436.795 354.5,447.5C 381.803,429.841 409.803,413.174 438.5,397.5 Z M 377.5,446.5 C 367.126,454.793 356.959,463.46 347,472.5C 345.561,474.275 344.561,476.275 344,478.5C 339.549,475.016 335.382,471.183 331.5,467C 346.706,459.897 362.04,453.064 377.5,446.5 Z"/></g>
</svg>
